<svg xmlns="http://www.w3.org/2000/svg" width="15.75" height="18" viewBox="0 0 15.75 18">
  <path id="Path_190" data-name="Path 190" d="M0,16.313A1.688,1.688,0,0,0,1.688,18H14.063a1.688,1.688,0,0,0,1.687-1.687V6.75H0ZM11.25,9.422A.423.423,0,0,1,11.672,9h1.406a.423.423,0,0,1,.422.422v1.406a.423.423,0,0,1-.422.422H11.672a.423.423,0,0,1-.422-.422Zm0,4.5a.423.423,0,0,1,.422-.422h1.406a.423.423,0,0,1,.422.422v1.406a.423.423,0,0,1-.422.422H11.672a.423.423,0,0,1-.422-.422Zm-4.5-4.5A.423.423,0,0,1,7.172,9H8.578A.423.423,0,0,1,9,9.422v1.406a.423.423,0,0,1-.422.422H7.172a.423.423,0,0,1-.422-.422Zm0,4.5a.423.423,0,0,1,.422-.422H8.578A.423.423,0,0,1,9,13.922v1.406a.423.423,0,0,1-.422.422H7.172a.423.423,0,0,1-.422-.422Zm-4.5-4.5A.423.423,0,0,1,2.672,9H4.078a.423.423,0,0,1,.422.422v1.406a.423.423,0,0,1-.422.422H2.672a.423.423,0,0,1-.422-.422Zm0,4.5a.423.423,0,0,1,.422-.422H4.078a.423.423,0,0,1,.422.422v1.406a.423.423,0,0,1-.422.422H2.672a.423.423,0,0,1-.422-.422ZM6.75,2.25V.563A.564.564,0,0,0,6.188,0H.563A.564.564,0,0,0,0,.563V5.625H15.75V3.938A1.688,1.688,0,0,0,14.063,2.25" fill="#fff"/>
</svg>
