<svg xmlns="http://www.w3.org/2000/svg" width="17" height="15.278" viewBox="0 0 17 15.278">
  <g id="settings-icon" transform="translate(-64 -96)">
    <path id="Path_182" data-name="Path 182" d="M314.952,277.527a3.756,3.756,0,0,0,0-1.365l.826-.477a.232.232,0,0,0,.106-.272,4.808,4.808,0,0,0-1.063-1.839.234.234,0,0,0-.288-.045l-.826.477a3.76,3.76,0,0,0-1.182-.682v-.955a.233.233,0,0,0-.183-.227,4.833,4.833,0,0,0-2.12,0,.233.233,0,0,0-.183.227v.955a3.761,3.761,0,0,0-1.182.682l-.826-.477a.234.234,0,0,0-.288.045,4.807,4.807,0,0,0-1.063,1.839.236.236,0,0,0,.106.272l.826.477a3.759,3.759,0,0,0,0,1.365l-.826.477a.232.232,0,0,0-.106.272,4.831,4.831,0,0,0,1.063,1.839.234.234,0,0,0,.288.045l.826-.477a3.76,3.76,0,0,0,1.182.682v.955a.233.233,0,0,0,.183.227,4.833,4.833,0,0,0,2.12,0,.233.233,0,0,0,.183-.227v-.955a3.76,3.76,0,0,0,1.182-.682l.826.477a.234.234,0,0,0,.288-.045,4.808,4.808,0,0,0,1.063-1.839.236.236,0,0,0-.106-.272Zm-3.668.871a1.554,1.554,0,1,1,1.553-1.553A1.555,1.555,0,0,1,311.284,278.4Z" transform="translate(-234.895 -170.386)" fill="#fff"/>
    <g id="Group_460" data-name="Group 460" transform="translate(64 96)">
      <path id="Path_183" data-name="Path 183" d="M64.512,99.075H79.887a.514.514,0,0,0,.512-.512v-2.05A.514.514,0,0,0,79.887,96H64.512a.514.514,0,0,0-.512.513v2.05A.514.514,0,0,0,64.512,99.075Z" transform="translate(-64 -96)" fill="#fff"/>
      <path id="Path_184" data-name="Path 184" d="M70.8,448.919l0-.006a1.26,1.26,0,0,1,.067-.913H64.512a.514.514,0,0,0-.512.513v2.05a.514.514,0,0,0,.512.513h7.515A5.858,5.858,0,0,1,70.8,448.919Z" transform="translate(-64 -436.725)" fill="#fff"/>
      <path id="Path_185" data-name="Path 185" d="M64.512,275.075h6.294a5.881,5.881,0,0,1,1.288-2.223,1.268,1.268,0,0,1,.926-.4,1.231,1.231,0,0,1,.628.17l.25.144c.07-.045.144-.086.218-.125v-.291a1.253,1.253,0,0,1,.048-.346H64.512a.514.514,0,0,0-.512.513v2.05A.514.514,0,0,0,64.512,275.075Z" transform="translate(-64 -266.362)" fill="#fff"/>
    </g>
  </g>
</svg>
