<svg id="Group_66" data-name="Group 66" xmlns="http://www.w3.org/2000/svg" width="20.888" height="34.15" viewBox="0 0 20.888 34.15">
  <g id="Group_4" data-name="Group 4" transform="translate(0 0)">
    <path id="Path_7" data-name="Path 7" d="M17.358,33.886a3.675,3.675,0,0,1-1.064-3.448c.423-2.218.534-2.81,1.158-3.552a5.668,5.668,0,0,0,1.48-2.7c0-.783-.457-1.048-.934-.783s-2.63,1.814-2.936,1.988-2.176,1.069-3.221-.273.111-4.054.434-5.2a8.9,8.9,0,0,1,3.613-3.8c1.143-.48,5.19-1.744,6.53-.216S24.924,18.641,24,21.1s-3.275,4.109-4.351,5.813-2.269,3.87-2.353,5.006a8.888,8.888,0,0,0,.059,1.967" transform="translate(-7.427 -10.065)" fill="#fab73c"/>
    <path id="Path_8" data-name="Path 8" d="M13.368,23.459l.046-.041a1.456,1.456,0,0,0,.42-1.15c-.018-.173-.192-.684.2-.6.137.027.257.075.387.112a1.87,1.87,0,0,0,.884.187c.271-.053.367-.27.427-.492a4.058,4.058,0,0,0,.125-1.1c0-.207-.008-.532.25-.628.217-.082.3.036.36.206.066.191.116.347.356.4a.923.923,0,0,0,.436-.019.887.887,0,0,0,.563-.593c.149-.337.293-.676.476-1,.139-.245.381-.561.724-.552.388.011.428.425.416.691-.017.341-.206.8.158,1.061.309.219.753.028,1.02-.159.285-.2.4-.534.652-.756a1.091,1.091,0,0,1,1.163-.122.585.585,0,0,1,.374.584c-.034.345-.342.549-.614.751a1.086,1.086,0,0,0-.458.531.633.633,0,0,0,.179.588.985.985,0,0,0,.36.146,2.316,2.316,0,0,0,.314.039c.164.023.423.088.372.286-.033.135-.189.246-.3.327a3.093,3.093,0,0,1-.669.344c-.212.083-.431.154-.646.233a1.489,1.489,0,0,0,.9.05,4.331,4.331,0,0,0,.564-.141,1.228,1.228,0,0,0,.481-.233.8.8,0,0,0,.242-.842.882.882,0,0,0-.536-.41c-.208-.07-.455-.107-.493-.348-.062-.381.366-.543.62-.76a.835.835,0,0,0,.22-.827,1.185,1.185,0,0,0-.951-.9,1.564,1.564,0,0,0-.769.011,2.021,2.021,0,0,0-.786.36c-.223.181-.285.472-.5.653a.411.411,0,0,1-.626-.051c-.186-.292.074-.716.052-1.036s-.332-.51-.679-.531a1.317,1.317,0,0,0-.956.473,3.308,3.308,0,0,0-.437.581,3,3,0,0,0-.235.561.708.708,0,0,1-.278.418.273.273,0,0,1-.366-.075c-.092-.163-.107-.369-.191-.54a.574.574,0,0,0-.439-.351c-.541-.067-.79.588-.836.967-.059.492.194,1.118-.3,1.486a.983.983,0,0,1-.921-.011c-.277-.088-.688-.154-.837.139-.191.372.017.72.1,1.084a1.357,1.357,0,0,1-.175,1.151,1.3,1.3,0,0,1,.164-.146" transform="translate(-7.944 -10.804)" fill="#fff"/>
    <path id="Path_9" data-name="Path 9" d="M15.534,26.423c.674.294.871-.918,1-1.31.092-.272.156-.677.513-.618.3.051.531.458.818.112s-.292-.724-.035-1.052c.393-.5.736.324,1.068.383.354.062.556-.209.61-.526s-.142-.776.154-1.011a.339.339,0,0,1,.459.02c.2.2.08.47.107.71a.715.715,0,0,0,.4.551.511.511,0,0,0,.543.016c.231-.2.076-.823.515-.8.363.021.245.368.135.581a2.188,2.188,0,0,0-.334.982c-.011.514.238,1.143.8,1.225.071.011.247.027.3-.021A1.352,1.352,0,0,1,21.847,24a3.673,3.673,0,0,0,.288-.554.883.883,0,0,0,0-.623c-.089-.2-.283-.423-.526-.386s-.345.3-.4.517a.287.287,0,0,1-.541.1c-.174-.3.13-.611-.147-.9a.843.843,0,0,0-.812-.22c-.327.081-.7.312-.716.69-.008.212.233.558.075.758-.13.164-.353-.037-.432-.159a.65.65,0,0,0-.989-.146.873.873,0,0,0-.157.852c.024.122.079.342-.095.347-.108,0-.247-.119-.348-.153-.574-.189-.853.36-.97.828-.127.517-.383.978-.544,1.476" transform="translate(-8.617 -12.011)" fill="#fff"/>
    <path id="Path_10" data-name="Path 10" d="M19.226,39.6a2.86,2.86,0,0,0,.31-.2c.48-.363,1.266-1.387.568-1.915a3.919,3.919,0,0,0-2.56-.469c-.319.026-.64.073-.955.124-.372.061-2.889.572-2.455-.507.214-.529.741-.285,1.146-.191a13.578,13.578,0,0,0,1.875.361c1.1.1,2.808.154,2.992-1.276a1.174,1.174,0,0,0-.755-1.111,3.6,3.6,0,0,0-1.764-.107c-2.272.248-4.15-.835-4.449-3.2a11.145,11.145,0,0,0-.588-2.664c-.99-2.61-2.987-4.661-4.154-7.177a8.943,8.943,0,0,1,.712-8.594,8.033,8.033,0,0,1,6.3-3.581A10.174,10.174,0,0,1,23.239,11.4a8.811,8.811,0,0,1,2.38,3.934,6.817,6.817,0,0,1-.034,4.529c-1.05,2.977-3.655,5.143-4.619,8.165a7.1,7.1,0,0,0-.24,1.095c-.069.468-.107.944-.194,1.409a4.308,4.308,0,0,1-.426,1.205,1.52,1.52,0,0,1-1.3.857,1.626,1.626,0,0,1-1.187-.958,5.282,5.282,0,0,1-.12-3.7,9.163,9.163,0,0,1,1.325-3.106,19.078,19.078,0,0,1,1.418-1.711,27,27,0,0,0,2.547-3.145c1.269-1.94,1.619-4.951-.428-6.523a5.751,5.751,0,0,0-4.886-.726,10.74,10.74,0,0,0-2.755,1.113c-.174.1-.344.213-.51.331a9.861,9.861,0,0,0-1.369,1.2,8.5,8.5,0,0,0-1.692,2.517,12.5,12.5,0,0,0-.8,2.551,4.21,4.21,0,0,0,.052,2.289,2.664,2.664,0,0,0,.307.582,2.278,2.278,0,0,0,2.644.65,4.441,4.441,0,0,0,1.043-.5,10.16,10.16,0,0,0,.94-.691c.085-.069.169-.139.255-.207s.134-.135.208-.2c.223-.188.413-.409.631-.6a1.635,1.635,0,0,1,.723-.44.616.616,0,0,1,.526.13.733.733,0,0,1,.18.515,1.279,1.279,0,0,1-.059.467,2.462,2.462,0,0,1-.122.268,2.535,2.535,0,0,1-.348.536c-.3.351-.593.705-.89,1.062a5.83,5.83,0,0,0-1,1.812,6.524,6.524,0,0,0-.375,2.021,6.023,6.023,0,0,0,.081.946,5.23,5.23,0,0,0,.12.744,1.33,1.33,0,0,0,.076.2c.023.052.047.038.056-.013a2.154,2.154,0,0,0,0-.339c0-.041,0-.083,0-.123a11.848,11.848,0,0,1,.611-3.246,5.222,5.222,0,0,1,.457-.995c.638-1.073,1.74-1.772,1.824-3.124a1.053,1.053,0,0,0-1.545-1.111,14.444,14.444,0,0,0-2.679,1.793c-.955.63-2.391.99-3-.252a4.721,4.721,0,0,1-.144-2.754,8.156,8.156,0,0,1,5.788-6.23,5.655,5.655,0,0,1,4.282.2,4.233,4.233,0,0,1,2.016,3.7c-.133,2.546-2.383,4.422-3.923,6.2a12.89,12.89,0,0,0-3.122,6.2,3.708,3.708,0,0,0,.718,3.005,2.727,2.727,0,0,0,2.787.837c1.187-.367,1.55-1.791,1.684-2.88a10.839,10.839,0,0,1,1.256-4.415c1.513-2.555,3.866-4.994,4.236-8.063a9.336,9.336,0,0,0-3.175-7.726A12.255,12.255,0,0,0,12.763,8.4a10.763,10.763,0,0,0-3.928,2,8.458,8.458,0,0,0-3.014,6.74,8.644,8.644,0,0,0,.451,2.372A23.689,23.689,0,0,0,9.536,24.9,17.684,17.684,0,0,1,11.827,28.7a4.4,4.4,0,0,1,.369,2.092c-.153,1.227-.053,3.053.99,3.89a4.292,4.292,0,0,0,3.217.47c.275-.033.548-.069.824-.094.467-.044,1.084-.316,1.513,0,.517.382-.112.82-.465.955a3.321,3.321,0,0,1-1.786-.023c-.343-.065-.682-.144-1.022-.223a3.922,3.922,0,0,0-2.033-.16c-1.15.359-.881,1.642.022,2.094a5.763,5.763,0,0,0,3.4.111c.509-.077,1.494-.485,1.917-.026.5.545-.553,1.175-.9,1.412-1.288.877-2.829,1.253-4.043,2.255a3.937,3.937,0,0,0-.8.7c.194.031.551-.234.71-.323.512-.28,1.1-.351,1.611-.6.467-.229.983-.4,1.444-.645.775-.418,1.664-.542,2.43-.978" transform="translate(-5.811 -8)" fill="#fff"/>
  </g>
</svg>